<svg width="80" height="80" viewBox="0 0 80 80" fill="none" xmlns="http://www.w3.org/2000/svg">
<path fill-rule="evenodd" clip-rule="evenodd" d="M10 15C10 12.2386 12.2386 10 15 10H65C67.7615 10 70 12.2386 70 15V65C70 67.7615 67.7615 70 65 70H15C12.2386 70 10 67.7615 10 65V15ZM19.0562 16.6667C18.621 16.6667 18.1898 16.6845 17.7632 16.7193C17.1435 16.77 16.6667 17.2832 16.6667 17.8995V63.8158C16.6667 64.4698 17.2015 65 17.8615 65H21.4457C22.1055 65 22.6405 64.4698 22.6405 63.8158V55.1732L27.535 57.2523C28.1608 57.5182 28.9217 57.7982 29.716 57.902C30.5252 58.0075 31.4432 57.9388 32.2972 57.422C33.6683 56.5918 34.588 55.0915 34.588 53.3772V49.8245C34.588 49.1705 34.053 48.6403 33.3932 48.6403L29.716 47.4562C29.716 46.2537 30.6985 46.2613 31.8823 46.2703C31.9862 46.2712 32.092 46.272 32.1985 46.272H33.3932C34.053 46.272 34.588 45.7417 34.588 45.0877V42.7193H35.9398C37.8483 42.7193 38.9867 40.611 37.928 39.0372L34.588 34.0713V32.0613C34.588 23.5592 27.6342 16.6667 19.0562 16.6667ZM31.0037 35.022C31.0037 36.003 30.2013 36.7982 29.2115 36.7982C28.2218 36.7982 27.4195 36.003 27.4195 35.022C27.4195 34.0408 28.2218 33.2457 29.2115 33.2457C30.2013 33.2457 31.0037 34.0408 31.0037 35.022ZM44.4737 46.6667C44.4737 48.155 43.6752 49.4488 42.4925 50.14L44.1742 53.018C46.3475 51.748 47.807 49.3765 47.807 46.6667C47.807 43.9568 46.3475 41.5853 44.1742 40.3153L42.4925 43.1933C43.6752 43.8845 44.4737 45.1783 44.4737 46.6667ZM51.4912 46.6667C51.4912 43.2213 49.992 40.3567 47.9705 38.8942L49.9243 36.1935C52.9368 38.373 54.8245 42.3155 54.8245 46.6667C54.8245 51.0178 52.9368 54.9603 49.9243 57.1398L47.9705 54.4392C49.992 52.9767 51.4912 50.112 51.4912 46.6667ZM58.5088 46.6667C58.5088 51.969 56.4018 56.4133 53.5258 58.6942L55.597 61.3058C59.433 58.2638 61.8422 52.7592 61.8422 46.6667C61.8422 40.5742 59.433 35.0695 55.597 32.0275L53.5258 34.6392C56.4018 36.92 58.5088 41.3643 58.5088 46.6667Z" fill="white"/>
</svg>
