<svg width="45" height="46" viewBox="0 0 45 46" fill="none" xmlns="http://www.w3.org/2000/svg">
<path d="M44.6354 22.4657L22.5724 0L0.367563 22.4626C-0.121387 22.9573 -0.122688 23.7606 0.364675 24.2569C0.852038 24.7531 1.64349 24.7545 2.13244 24.2598L6.25 20.0944V44.2938C6.25 44.9945 6.80963 45.5625 7.5 45.5625H16.25C16.9404 45.5625 17.5 44.9945 17.5 44.2938V34.1449C17.5 32.7435 18.6193 31.6076 20 31.6076H25C26.3808 31.6076 27.5 32.7435 27.5 34.1449V44.2938C27.5 44.9945 28.0596 45.5625 28.75 45.5625H37.5C38.1904 45.5625 38.75 44.9945 38.75 44.2938V20.067L42.8647 24.2569C43.352 24.7531 44.1435 24.7545 44.6324 24.2598C45.1214 23.7652 45.1227 22.9618 44.6354 22.4657Z" fill="#D7D7D7"/>
</svg>
